<?xml version="1.0" encoding="UTF-8"?>
<svg viewBox="0 0 166 24" xmlns="http://www.w3.org/2000/svg">
  <path
    d="m0.0026003 0.34698h4.4593c2.6824 0 4.5972 0.10357 6.4444 1.4552 3.2417 2.3563 3.4837 7.5919 3.4837 9.811 0 4.5417-0.9392 8.1486-3.4134 10.368-0.8716 0.7276-2.3676 1.4914-4.7378 1.4914h-6.2389v-23.125h0.0026003zm4.6701 19.068h1.3919c0.48912 0 2.1256 0 2.6824-1.5251 0.48912-1.3879 0.59319-4.508 0.59319-5.826 0-7.0041-1.1864-7.6981-3.2756-7.6981h-1.3919v15.049z"
    fill="#fff" />
  <path
    d="m19.172 13.972-4.6362-13.625h5.0187l2.0189 7.3511c0.3825 1.318 0.4163 2.7033 0.4163 3.6743 0.0702-1.2144 0.2446-2.4962 0.5932-3.6743l2.2297-7.3511h4.285l-5.1566 13.625v9.5003h-4.7716v-9.5003h0.0026z"
    fill="#fff" />
  <path
    d="m30.781 0.34695h4.6701l3.7621 10.608c0.385 1.0746 0.6972 2.636 1.1135 4.5754-0.1743-2.3563-0.346-5.8933-0.346-7.0378v-8.1486h3.8661v23.125h-3.8661l-4.3579-11.823c-0.5906-1.595-1.0771-3.537-1.3581-4.7488 0.1769 2.0818 0.385 5.8596 0.385 6.8306v9.7437h-3.8687v-23.125z"
    fill="#fff" />
  <path
    d="m55.56 0.34698 5.2607 23.125h-4.808l-0.9418-4.9922h-4.5972l-0.9054 4.9922h-4.285l5.3309-23.125h4.9458zm-1.0094 14.389-1.2879-6.1704c-0.2107-0.93474-0.385-1.8022-0.4891-3.884-0.1379 0.971-0.281 2.2527-0.5594 3.6768l-1.254 6.3775h3.5904z"
    fill="#fff" />
  <path
    d="m62.254 0.34698h6.5485l1.7796 9.7436c0.4163 2.1492 0.5906 4.5417 0.7285 6.6236 0.1769-2.5324 0.6973-5.8597 0.9756-7.1078l1.9851-9.2569h6.4107v23.125h-4.5634v-13.174c0-1.4915 0.0364-2.4599 0.2445-7.0042-0.2081 1.4915-0.7649 5.5826-1.0094 6.797l-2.8229 13.382h-2.9946l-2.7162-13.591c-0.3122-1.595-0.6608-4.4044-0.9054-6.5873 0.0338 1.8022 0.1379 4.6453 0.1379 6.4474v13.731h-3.7985v-23.128z"
    fill="#fff" />
  <path d="m108.6 0.34698h4.774v18.861h5.886v4.2646h-10.66v-23.125z" fill="#fff" />
  <path
    d="m130.44 0.34698 5.261 23.125h-4.808l-0.942-4.9922h-4.597l-0.906 4.9922h-4.285l5.331-23.125h4.946zm-1.009 14.389-1.288-6.1704c-0.211-0.93474-0.383-1.8022-0.489-3.884-0.138 0.971-0.281 2.2527-0.56 3.6768l-1.254 6.3775h3.591z"
    fill="#fff" />
  <path
    d="m137.1 0.34698h6.34c2.823 0 4.392 0 5.75 1.595 0.765 0.86743 1.46 2.1492 1.46 4.4045 0 3.8141-1.811 4.6116-2.891 5.0621 0.872 0.3133 3.554 1.2144 3.554 5.826 0 2.566-1.08 4.0549-1.813 4.7851-1.358 1.4215-3.866 1.4552-5.225 1.4552h-7.175v-23.128zm4.597 9.3268h1.741c2.51 0 2.578-1.6986 2.578-2.6696 0-1.6986-0.731-2.9467-2.578-2.9467h-1.741v5.6163zm0 9.9508h1.881c1.741 0 2.857-0.5542 2.857-3.1202 0-0.2071 0-1.318-0.484-2.1854-0.526-0.8674-1.186-0.9347-2.545-0.9347h-1.706v6.2403h-3e-3z"
    fill="#fff" />
  <path
    d="m161.94 6.8643c-0.556-2.2527-1.636-2.7033-2.646-2.7033-1.914 0-2.019 1.8721-2.019 2.2527 0 1.6986 0.732 2.0456 4.145 3.6069 1.431 0.694 4.426 2.0793 4.426 6.4837 0 4.4045-2.545 7.3149-7.038 7.3149-5.297 0-6.411-3.9876-6.827-6.2403l3.798-1.318c0.557 2.4625 1.359 3.3972 3.029 3.3972 2.162 0 2.367-1.8721 2.367-2.4262 0-1.5614-1.043-2.2191-1.948-2.6359-2.927-1.4552-4.358-2.1155-5.368-3.7105-0.627-0.97105-1.043-2.3926-1.043-3.8478 0-3.5008 2.23-7.0378 6.341-7.0378 4.771 0 5.957 3.9876 6.34 5.3055l-3.554 1.5614-3e-3 -0.00259z"
    fill="#fff" />
  <path
    d="m101.56 10.349h-4.7595v-9.7757c0-0.55121-0.7204-0.77867-1.0492-0.33206l-8.4989 11.517c-0.278 0.3752-0.0034 0.9015 0.4695 0.9015h4.7596v9.7757c0 0.5512 0.7204 0.7787 1.0493 0.3321l8.4992-11.517c0.278-0.3752 3e-3 -0.9015-0.47-0.9015z"
    fill="#fff" />
</svg>
