<?xml version="1.0" encoding="UTF-8"?>
<svg viewBox="0 0 175 24" xmlns="http://www.w3.org/2000/svg">
  <path
    d="m25.863 0.34283h4.4593c2.6824 0 4.5973 0.10357 6.4445 1.4552 3.2417 2.3563 3.4837 7.5919 3.4837 9.811 0 4.5417-0.9392 8.1486-3.4135 10.368-0.8715 0.7276-2.3675 1.4915-4.7377 1.4915h-6.2389v-23.125h0.0026zm4.6701 19.068h1.3919c0.4891 0 2.1256 0 2.6824-1.5251 0.4891-1.3879 0.5932-4.5081 0.5932-5.826 0-7.0042-1.1864-7.6981-3.2756-7.6981h-1.3919v15.049z"
    fill="#fff" />
  <path
    d="m45.032 13.968-4.6363-13.625h5.0187l2.019 7.3511c0.3824 1.318 0.4162 2.7032 0.4162 3.6742 0.0703-1.2144 0.2446-2.4961 0.5932-3.6742l2.2297-7.3511h4.285l-5.1566 13.625v9.5003h-4.7715v-9.5003h0.0026z"
    fill="#fff" />
  <path
    d="m56.641 0.3428h4.6701l3.7621 10.608c0.3851 1.0746 0.6973 2.6359 1.1135 4.5753-0.1743-2.3563-0.346-5.8933-0.346-7.0378v-8.1486h3.8662v23.125h-3.8662l-4.3579-11.823c-0.5906-1.595-1.0771-3.537-1.3581-4.7488 0.177 2.0818 0.3851 5.8597 0.3851 6.8307v9.7436h-3.8688v-23.125z"
    fill="#fff" />
  <path
    d="m81.42 0.34283 5.2606 23.125h-4.8079l-0.9419-4.9923h-4.5972l-0.9054 4.9923h-4.285l5.3309-23.125h4.9459zm-1.0095 14.389-1.2878-6.1704c-0.2108-0.93474-0.3851-1.8022-0.4892-3.884-0.1379 0.971-0.281 2.2527-0.5593 3.6768l-1.2541 6.3776h3.5904z"
    fill="#fff" />
  <path
    d="m88.114 0.34283h6.5485l1.7796 9.7437c0.4163 2.1491 0.5906 4.5417 0.7285 6.6235 0.1769-2.5324 0.6972-5.8597 0.9756-7.1077l1.9849-9.2569h6.411v23.125h-4.564v-13.174c0-1.4914 0.037-2.4598 0.245-7.0041-0.208 1.4915-0.765 5.5826-1.009 6.797l-2.8233 13.382h-2.9946l-2.7162-13.591c-0.3122-1.595-0.6608-4.4044-0.9054-6.5873 0.0338 1.8022 0.1379 4.6453 0.1379 6.4474v13.731h-3.7985v-23.128z"
    fill="#fff" />
  <path d="m117.46 0.34283h4.774v18.861h5.886v4.2647h-10.66v-23.125z" fill="#fff" />
  <path
    d="m139.3 0.34283 5.261 23.125h-4.808l-0.942-4.9923h-4.597l-0.906 4.9923h-4.285l5.331-23.125h4.946zm-1.01 14.389-1.287-6.1704c-0.211-0.93474-0.383-1.8022-0.49-3.884-0.137 0.971-0.281 2.2527-0.559 3.6768l-1.254 6.3776h3.59z"
    fill="#fff" />
  <path
    d="m145.96 0.34283h6.34c2.823 0 4.392 0 5.75 1.595 0.765 0.86743 1.46 2.1492 1.46 4.4045 0 3.8141-1.811 4.6116-2.891 5.0622 0.872 0.3133 3.554 1.2144 3.554 5.826 0 2.566-1.08 4.0548-1.813 4.785-1.358 1.4216-3.866 1.4552-5.225 1.4552h-7.175v-23.128zm4.597 9.3268h1.741c2.51 0 2.578-1.6986 2.578-2.6696 0-1.6986-0.731-2.9467-2.578-2.9467h-1.741v5.6163zm0 9.9508h1.881c1.741 0 2.857-0.5541 2.857-3.1201 0-0.2072 0-1.318-0.484-2.1854-0.526-0.8675-1.186-0.9348-2.545-0.9348h-1.706v6.2403h-3e-3z"
    fill="#fff" />
  <path
    d="m170.8 6.8602c-0.556-2.2527-1.636-2.7033-2.646-2.7033-1.914 0-2.019 1.8721-2.019 2.2527 0 1.6986 0.732 2.0456 4.145 3.607 1.431 0.6939 4.426 2.0792 4.426 6.4837 0 4.4044-2.545 7.3148-7.038 7.3148-5.297 0-6.411-3.9876-6.827-6.2403l3.798-1.3179c0.557 2.4624 1.359 3.3972 3.029 3.3972 2.162 0 2.367-1.8721 2.367-2.4262 0-1.5614-1.043-2.2191-1.948-2.636-2.927-1.4552-4.358-2.1155-5.368-3.7105-0.627-0.971-1.043-2.3925-1.043-3.8477 0-3.5008 2.23-7.0378 6.341-7.0378 4.771 0 5.957 3.9876 6.34 5.3055l-3.554 1.5614-3e-3 -0.00259z"
    fill="#fff" />
  <path
    d="m14.419 10.344h-4.7596v-9.7757c0-0.55121-0.7204-0.77867-1.0492-0.33206l-8.4989 11.517c-0.27799 0.3752-0.00339 0.9016 0.46952 0.9016h4.7597v9.7757c0 0.5512 0.72039 0.7786 1.0492 0.332l8.499-11.517c0.2779-0.3752 0.0034-0.9016-0.4696-0.9016z"
    fill="#fff" />
</svg>
